<svg xmlns="http://www.w3.org/2000/svg" viewBox="0 0 52.3 50"><defs><style>.cls-1{fill:#c5281c;}</style></defs><title>Fichier 1</title><g id="Calque_2" data-name="Calque 2"><g id="Calque_1-2" data-name="Calque 1"><path class="cls-1" d="M20,48.72H10.91a2,2,0,0,1-2-2A2.22,2.22,0,0,1,9,46.22l4.33-19H12L7.7,45.94a3.33,3.33,0,0,0,2.49,4,3.32,3.32,0,0,0,.71.1H20a3.32,3.32,0,0,0,3.28-3.15l1.07-19.68H23.05L22,46.79a2,2,0,0,1-2,1.93ZM19.85,1.28h3.7a.88.88,0,0,1,.85.88s0,0,0,0l-.82,15.4h1.28l.82-15.33A2.11,2.11,0,0,0,25.14.73,2.14,2.14,0,0,0,23.66,0h-3.8a2.12,2.12,0,0,0-2.09,1.67L14.15,17.6h1.32L19,1.95a.86.86,0,0,1,.83-.67ZM27.63,17.6h1.28L28.09,2.2a.87.87,0,0,1,.8-.91h3.73a.86.86,0,0,1,.83.68L37,17.6h1.32L34.72,1.67A2.12,2.12,0,0,0,32.64,0H28.95A2.15,2.15,0,0,0,26.8,2.15s0,.07,0,.11Zm12.89,9.57H39.21l4.34,19A2,2,0,0,1,42,48.64a2.06,2.06,0,0,1-.46.08H32.51a2,2,0,0,1-2-1.93L29.46,27.17H28.17l1.07,19.68A3.32,3.32,0,0,0,32.52,50H41.6a3.31,3.31,0,0,0,3.27-3.33,3.46,3.46,0,0,0-.08-.73Z"/><path class="cls-1" d="M50.08,19.77H2.21A2.19,2.19,0,0,0,0,22v.73A2.27,2.27,0,0,0,2.21,25H3.57v2.63A2.45,2.45,0,0,0,6,30.1H7.37a2.45,2.45,0,0,0,2.45-2.47V24.87H42.6v2.75a2.49,2.49,0,0,0,2.49,2.48h1.32a2.45,2.45,0,0,0,2.44-2.48V24.87h1.22A2.17,2.17,0,0,0,52.3,22.7V22a2.19,2.19,0,0,0-2.21-2.2Zm0,3.83H48.27a.74.74,0,0,0-.7.7v3.33a1.16,1.16,0,0,1-1.14,1.2H45.09a1.21,1.21,0,0,1-1.21-1.2V24.3a.68.68,0,0,0-.63-.7h-34a.72.72,0,0,0-.67.7v3.33a1.18,1.18,0,0,1-1.17,1.2H6a1.18,1.18,0,0,1-1.18-1.2V24.3a.71.71,0,0,0-.66-.7h-2a.89.89,0,0,1-.94-.89V22A.91.91,0,0,1,2.2,21H50.08A.91.91,0,0,1,51,22v.74a.89.89,0,0,1-.93.89Z"/></g></g></svg>