<?xml version="1.0" encoding="utf-8"?>
<!-- Generator: Adobe Illustrator 21.1.0, SVG Export Plug-In . SVG Version: 6.00 Build 0)  -->
<svg version="1.1" id="Calque_1" xmlns="http://www.w3.org/2000/svg" xmlns:xlink="http://www.w3.org/1999/xlink" x="0px" y="0px"
	 viewBox="0 0 47 45" style="enable-background:new 0 0 47 45;" xml:space="preserve">
<style type="text/css">
	.st0{fill:#C5281C;}
</style>
<title>Fichier 1</title>
<g id="Calque_2">
	<g id="Calque_1-2">
		<path class="st0" d="M18,43.8H9.8C8.8,43.8,8,43,8,42c0-0.2,0-0.3,0.1-0.4L12,24.5h-1.2L6.9,41.3c-0.4,1.6,0.6,3.2,2.2,3.6
			c0,0,0,0,0,0C9.4,45,9.6,45,9.8,45H18c1.6,0,2.9-1.3,2.9-2.8l1-17.7h-1.2l-0.9,17.6C19.8,43,19,43.8,18,43.8z M17.9,1.2h3.3
			c0.4,0,0.8,0.4,0.8,0.8l0,0l-0.7,13.8h1.2L23.1,2c0-0.5-0.2-1-0.5-1.3C22.3,0.3,21.8,0,21.3,0h-3.4C17,0,16.2,0.6,16,1.5
			l-3.3,14.3h1.2l3.2-14.1C17.2,1.4,17.5,1.2,17.9,1.2L17.9,1.2z M24.8,15.8H26L25.3,2c0-0.4,0.3-0.8,0.7-0.8h3.4
			c0.4,0,0.7,0.3,0.7,0.6l3.2,14.1h1.2L31.2,1.5C31,0.6,30.3,0,29.4,0H26c-1.1,0-1.9,0.9-1.9,1.9c0,0,0,0,0,0c0,0,0,0.1,0,0.1
			L24.8,15.8z M36.4,24.4h-1.2l3.9,17.1c0.3,1-0.3,1.9-1.3,2.2c0,0-0.1,0-0.1,0c-0.1,0-0.3,0.1-0.4,0.1h-8.1c-1,0-1.8-0.8-1.8-1.7
			l-0.9-17.6h-1.2l1,17.7c0.1,1.6,1.4,2.8,2.9,2.8h8.2c1.6,0,3-1.4,2.9-3c0-0.2,0-0.4-0.1-0.7L36.4,24.4z"/>
		<path class="st0" d="M45.1,17.8L2,17.8c-1.1,0-2,0.9-2,2c0,0,0,0,0,0.1v0.7c0,1.1,0.9,2,2,2h1.2v2.4c0,1.2,1,2.2,2.2,2.2
			c0,0,0,0,0,0h1.2c1.2,0,2.2-1,2.2-2.2c0,0,0,0,0,0v-2.5h29.5v2.5c0,1.2,1,2.2,2.2,2.2h1.2c1.2,0,2.2-1,2.2-2.2c0,0,0,0,0,0v-2.5
			H45c1.1,0,2-0.8,2-1.9c0,0,0,0,0-0.1v-0.6C47,18.7,46.1,17.8,45.1,17.8C45,17.8,45.1,17.8,45.1,17.8z M45,21.2h-1.6
			c-0.3,0-0.6,0.3-0.6,0.6v3c0,0.6-0.4,1.1-1,1.1c0,0,0,0,0,0h-1.2c-0.6,0-1.1-0.5-1.1-1.1v-3c0-0.3-0.2-0.6-0.6-0.6H8.3
			c-0.3,0-0.6,0.3-0.6,0.6v3c0,0.6-0.5,1.1-1,1.1c0,0,0,0,0,0H5.4c-0.6,0-1.1-0.5-1.1-1.1c0,0,0,0,0,0v-3c0-0.3-0.3-0.6-0.6-0.6H1.9
			c-0.4,0-0.8-0.3-0.8-0.8c0,0,0,0,0,0v-0.6c0-0.4,0.3-0.9,0.7-0.9c0.1,0,0.1,0,0.2,0H45c0.5,0,0.8,0.4,0.8,0.8c0,0,0,0.1,0,0.1v0.7
			C45.9,20.9,45.5,21.2,45,21.2C45.1,21.2,45,21.2,45,21.2L45,21.2z"/>
	</g>
</g>
</svg>
