<?xml version="1.0" encoding="utf-8"?>
<!-- Generator: Adobe Illustrator 21.0.2, SVG Export Plug-In . SVG Version: 6.00 Build 0)  -->
<svg version="1.1" id="Слой_1" xmlns="http://www.w3.org/2000/svg" xmlns:xlink="http://www.w3.org/1999/xlink" x="0px" y="0px"
	 viewBox="0 0 38 38" style="enable-background:new 0 0 38 38;" xml:space="preserve">
<style type="text/css">
	.st0{fill:#C5291D;}
</style>
<path class="st0" d="M35.2,22.9h-0.7v1c0,1.5-1.3,2.7-2.8,2.7H12.8c-1.5,0-2.7-1.2-2.7-2.7v-11c0-1.5,1.2-2.7,2.7-2.7h18.9
	c1.5,0,2.7,1.2,2.7,2.7v1.5h0.8c1,0,1.8,0.8,1.8,1.8V21C37,22.1,36.2,22.9,35.2,22.9z M33.6,12.9c0-1-0.8-1.9-1.9-1.9H12.8
	c-1,0-1.9,0.8-1.9,1.9v11c0,1,0.8,1.9,1.9,1.9h18.9c1,0,1.9-0.8,1.9-1.9V12.9z M36.2,16.3c0-0.5-0.4-1-1-1h-0.7V22h0.7
	c0.5,0,1-0.4,1-1C36.2,21.1,36.2,16.3,36.2,16.3z M26.4,18l-5,5.8c-0.1,0.2-0.3,0.3-0.5,0.3c-0.1,0-0.3,0-0.4-0.1
	c-0.3-0.2-0.4-0.5-0.3-0.8l0,0l1.3-3.1h-2.9c-0.2,0-0.5-0.1-0.6-0.4c-0.1-0.2-0.1-0.5,0.1-0.8l0,0l5.4-5.8c0.1-0.2,0.3-0.3,0.5-0.3
	c0.1,0,0.3,0,0.4,0.1c0.3,0.2,0.4,0.5,0.3,0.8l0,0l-1.3,3.1h2.5c0.2,0,0.5,0.1,0.6,0.3C26.6,17.4,26.5,17.7,26.4,18L26.4,18z
	 M22.7,17.7c-0.2,0-0.4-0.2-0.4-0.4c0-0.1,0-0.1,0-0.2l1.1-2.7L19,19.1h3.1c0.2,0,0.4,0.2,0.4,0.4c0,0.1,0,0.1,0,0.2l-1.1,2.6l4-4.6
	H22.7z"/>
</svg>
