<?xml version="1.0" encoding="utf-8"?>
<!-- Generator: Adobe Illustrator 21.0.2, SVG Export Plug-In . SVG Version: 6.00 Build 0)  -->
<svg version="1.1" id="Слой_1" xmlns="http://www.w3.org/2000/svg" xmlns:xlink="http://www.w3.org/1999/xlink" x="0px" y="0px"
	 viewBox="0 0 155 82.7" width="155" height="82.7" style="enable-background:new 0 0 155 82.7;" xml:space="preserve">
<path fill="#C5281C" d="M153.7,72.6L143,72.8l0-2.5c-0.6-7.4-6.8-13.3-14.4-13.3c-7.6,0-13.9,5.9-14.5,13.3v2.5H39.7v-2.2
	c-0.5-7.6-6.9-13.6-14.7-13.6c-7.7,0-14,5.9-14.6,13.3l0,2.5l-7.1-0.1c-0.7,0-1.3-0.6-1.3-1.4V59c0-0.5,0.2-0.9,0.7-1.2l24.3-14.8
	c0.2-0.1,0.5-0.2,0.7-0.2h18.3L6.3,11.6v11.3c0,0,0,0.1,0,0.1h2.4c0.5,0,0.8,0.4,0.8,0.8v7.6c4.8,0.3,8.5,4.2,8.5,9c0,5-4.1,9-9,9
	c-5,0-9-4-9-9c0-0.5,0.4-0.8,0.8-0.8c0.3,0,0.6,0.2,0.7,0.4c0,0,2.6,4.9,7.1,5.6c1.3,0.2,2.6-0.2,3.7-1.2c1.1-0.9,1.7-2.2,1.7-3.5
	c0-2.4-1.4-5.7-4.5-6.1c-0.1,0.4-0.4,0.6-0.8,0.6H2.1c-0.5,0-0.8-0.4-0.8-0.8V23.9c0-0.5,0.4-0.8,0.8-0.8h2.4c0,0,0-0.1,0-0.1V10.2
	L1.7,8c-2-1.5-2-4.6-0.6-6.4C2.3-0.1,4.2-0.5,6,0.6l76.7,42.2c0,0,0,0,0.1,0h1.9l1.9-2.4v-24c0-0.7,0.6-1.4,1.3-1.4
	c2.2,0,4.3-0.1,6.2-0.1v-4.4c0-0.7,0.6-1.3,1.3-1.3c0,0,0,0,0,0h13.1c0.7,0,1.3,0.6,1.3,1.3c0,0,0,0,0,0V15c4.9,0.1,5.2,0.3,5.4,0.6
	c0.2,0.2,0.3,0.4,0.4,0.6h0l6,20.1l32.2,13.1c0.5,0.2,0.8,0.7,0.9,1.2l0.3,20.5C155,71.9,154.4,72.6,153.7,72.6L153.7,72.6z
	 M9.5,33.3c3.9,0.4,6.2,4.1,6.2,7.7c0,1.7-0.8,3.5-2.3,4.7c-1.4,1.2-3.3,1.8-5,1.6c-2.4-0.4-4.3-1.7-5.7-3C4,46.4,6.4,47.9,9,47.9
	c4.1,0,7.4-3.3,7.4-7.4c0-3.9-3.1-7.1-6.9-7.4C9.5,33.1,9.5,33.3,9.5,33.3z M2.9,24.7V34h5v-9.3H2.9z M4.6,3C4.6,3,4.6,3,4.6,3
	C4,2.6,3.7,2.7,3.3,3.2C2.8,3.9,2.7,5.3,3.4,5.8l46.9,37.1h26.8L4.6,3z M107.2,11.9H96.6V15c4.6-0.1,8-0.1,10.6-0.1V11.9z M152,51.6
	l-32-13c-0.4-0.2-0.7-0.5-0.8-0.9l-6-20c-3.1-0.2-15.4,0-23.8,0.1V41c0,0.3-0.1,0.6-0.3,0.8l-2.6,3.3c-0.3,0.3-0.7,0.5-1.1,0.5H27.9
	L4.7,59.8v10.1l3.1,0c0.7-8.8,8.2-15.7,17.3-15.7c9.2,0,16.7,7,17.4,15.8h68.9c0.7-8.8,8.1-15.8,17.2-15.8c9,0,16.4,7,17.1,15.8
	l6.7-0.1L152,51.6L152,51.6z M110.7,40.7H92.7c-0.8,0-1.4-0.6-1.4-1.4v-18c0-0.8,0.6-1.4,1.4-1.4h18.1c0.8,0,1.4,0.6,1.4,1.4v18
	C112.1,40.1,111.5,40.7,110.7,40.7z M109.4,22.7H94V38h15.3C109.4,38,109.4,22.7,109.4,22.7z M25,60.1c6.2,0,11.3,5.1,11.3,11.3
	c0,6.2-5.1,11.3-11.3,11.3c-6.2,0-11.3-5.1-11.3-11.3C13.7,65.2,18.8,60.1,25,60.1z M25,80.1c4.8,0,8.6-3.9,8.6-8.6
	c0-4.8-3.9-8.6-8.6-8.6c-4.8,0-8.6,3.9-8.6,8.6C16.4,76.2,20.2,80.1,25,80.1z M128.5,60.1c6.2,0,11.3,5.1,11.3,11.3
	c0,6.2-5.1,11.3-11.3,11.3c-6.2,0-11.3-5.1-11.3-11.3C117.2,65.2,122.2,60.1,128.5,60.1z M128.5,80.1c4.8,0,8.6-3.9,8.6-8.6
	c0-4.8-3.9-8.6-8.6-8.6s-8.6,3.9-8.6,8.6C119.9,76.2,123.7,80.1,128.5,80.1z"/>
</svg>
