<?xml version="1.0" encoding="utf-8"?>
<!-- Generator: Adobe Illustrator 21.0.2, SVG Export Plug-In . SVG Version: 6.00 Build 0)  -->
<svg version="1.1" id="Слой_1" xmlns="http://www.w3.org/2000/svg" xmlns:xlink="http://www.w3.org/1999/xlink" x="0px" y="0px"
	 viewBox="0 0 38 38" style="enable-background:new 0 0 38 38;" xml:space="preserve">
<style type="text/css">
	.st0{fill:#C5291D;}
</style>
<path class="st0" d="M36.7,33.3v0.9H10.3v-1l0,0v-18l0.2-0.2l4.1-4.1l-1.5-1.3l5.3-5.3l1.4,1.4l1.9-1.9h0.2h0.4
	c7-0.1,11.2-0.1,12.3,0.1c1.7,0.2,2.2,1.7,2.2,2.5l0,0L36.7,33.3L36.7,33.3z M18.4,5.4l-4.2,4.2l0.9,0.9l4.2-4.2L18.4,5.4z M36,6.5
	c0-0.1-0.1-1.6-1.6-1.8C33.7,4.6,31,4.5,22.3,4.6H22l-10.9,11v17.1h1.1v-1.2h1.5v1.2h1.5v-1.2h1.5v1.2h1.5v-1.2h1.5v1.2h1.5v-1.2
	h1.5v1.2h1.5v-1.2h1.5v1.2h1.5v-1.2h1.5v1.2h1.5v-1.2h1.5v1.2h1.5v-1.2h1.5v1.2h1.2C36,32.6,36,6.5,36,6.5z M21.5,9.1L21.5,9.1
	C21.3,9.1,21,9,21,8.7V8.3h0.2L23,6.7h10.9v2.6L21.5,9.1L21.5,9.1z M33,8.5V7.4h-9.8l-1,1C24.4,8.4,29.7,8.5,33,8.5z M29,15
	c0.2-0.1,0.4-0.1,0.5,0c0.1,0.2,0.1,0.4,0,0.5l0,0l-4.6,4.4l4.7,4.3c0.2,0.1,0.2,0.4,0,0.5s-0.4,0.2-0.5,0l-4.7-4.4l-4.7,4.4
	c-0.2,0.1-0.4,0.1-0.5,0c-0.1-0.2-0.1-0.4,0-0.5l4.7-4.3l-4.7-4.3c-0.2-0.1-0.2-0.4,0-0.5l0,0c0.1-0.2,0.4-0.2,0.5,0l4.7,4.4
	C24.3,19.4,29,15,29,15z"/>
</svg>
