<?xml version="1.0" encoding="utf-8"?>
<!-- Generator: Adobe Illustrator 21.1.0, SVG Export Plug-In . SVG Version: 6.00 Build 0)  -->
<svg version="1.1" id="Calque_1" xmlns="http://www.w3.org/2000/svg" xmlns:xlink="http://www.w3.org/1999/xlink" x="0px" y="0px"
	 viewBox="0 0 8 14" width="8" height="14" style="enable-background:new 0 0 8 14;" xml:space="preserve">

<path fill="#B0B1B3" d="M0.8,0.1L0.1,0.8C0.1,0.9,0,1,0,1.2c0,0.1,0.1,0.2,0.1,0.3L5.5,7l-5.4,5.5C0.1,12.6,0,12.7,0,12.8
	c0,0.1,0,0.2,0.1,0.3l0.7,0.7C0.9,14,1,14,1.1,14c0.1,0,0.2-0.1,0.3-0.1l6.4-6.5C8,7.2,8,6.9,7.9,6.7c0,0,0,0,0,0L1.5,0.1
	C1.4,0.1,1.3,0,1.1,0C1,0,0.9,0.1,0.8,0.1z"/>
</svg>
