<?xml version="1.0" encoding="utf-8"?>
<!-- Generator: Adobe Illustrator 21.0.2, SVG Export Plug-In . SVG Version: 6.00 Build 0)  -->
<svg version="1.1" id="Слой_1" xmlns="http://www.w3.org/2000/svg" xmlns:xlink="http://www.w3.org/1999/xlink" x="0px" y="0px"
	 viewBox="0 0 38 38" width="38" height="38" style="enable-background:new 0 0 38 38;" xml:space="preserve">

<path class="st0" fill="#C5291D" d="M36.5,25.8l0.1,2.1c0,0.4-0.1,0.9-0.4,1.2c-0.3,0.3-0.7,0.5-1.2,0.6l-2.7,0.2c-0.9,0.1-1.8-0.7-1.8-1.6l-0.1-2
	l-2,0.1c-0.1,0.5-0.4,0.8-0.8,1c-0.4,0.2-1,0.2-1.6,0.3l-1.6,0.1c-0.6,0-1.2,0.1-1.6-0.1c-0.5-0.1-0.8-0.4-0.9-0.9l-3.1,0.2l0.2,2.8
	c0,0.2,0,0.3-0.2,0.5c-0.2,0.2-0.6,0.7-5.5,0.9c-1.2,0-2.4,0.1-3.6,0.1c-0.6,0-1,0-1,0l-0.4,0l-0.4-2.7l4.7-0.4l-0.1-0.8
	c-0.4,0-0.8-0.2-1.1-0.5c-0.4-0.3-0.6-0.8-0.6-1.3l-0.5-7.3c-0.1-1.4,0.5-2.8,1.7-3.8l1.1-0.8l1-4c0.3-1.8,1.8-3.2,3.7-3.3l10.9-0.7
	c1.9-0.1,3.5,1,4.1,2.8l1.4,3.8l1.2,0.7c1.3,0.7,2.1,2.1,2.2,3.5l0.5,7.3C38.1,24.8,37.4,25.6,36.5,25.8z M36.7,16.6
	c-0.1-1.2-0.7-2.2-1.7-2.8l0,0l-1.4-0.9l-1.6-4.2c-0.4-1.4-1.7-2.3-3.2-2.2L17.8,7.2c-1.5,0.1-2.6,1.1-2.9,2.6l0,0l-1,4.3l-1.3,1
	c-0.9,0.7-1.4,1.9-1.4,3l0.5,7.3c0,0.3,0.1,0.5,0.3,0.7c0.2,0.2,0.5,0.3,0.7,0.2l0.6,0l0.2,2.6l-4.6,0.4l0.1,1
	c3.9,0,8.2-0.2,8.9-0.6l-0.2-3.6l4.8-0.3l0,0.4c0,0.4,0.2,0.5,0.4,0.5c0.3,0.1,0.8,0.1,1.3,0l1.6-0.1c0.5,0,1-0.1,1.3-0.2
	c0.2-0.1,0.3-0.2,0.3-0.6l0-0.4l3.7-0.2l0.2,2.9c0,0.5,0.4,0.8,0.9,0.8l2.7-0.2c0.2,0,0.4-0.1,0.6-0.3c0.1-0.2,0.2-0.4,0.2-0.6
	L35.6,25l0.6,0c0.5,0,1-0.5,0.9-1c0,0,0,0,0,0C37.1,23.9,36.7,16.6,36.7,16.6z M32.9,20.5c-0.7,0-1.4-0.2-1.9-0.7
	c-0.5-0.5-0.9-1.1-0.9-1.8c0-0.7,0.2-1.4,0.7-1.9c0.5-0.5,1.1-0.9,1.8-0.9c0.7,0,1.4,0.2,1.9,0.7c0.5,0.5,0.9,1.1,0.9,1.8
	c0,0.7-0.2,1.4-0.7,1.9C34.3,20.2,33.6,20.5,32.9,20.5z M34,16.5c-0.4-0.3-0.8-0.5-1.3-0.4c-0.5,0-0.9,0.2-1.2,0.6
	C31.1,17,30.9,17.5,31,18c0.1,1,0.9,1.7,1.9,1.7c0.5,0,0.9-0.2,1.2-0.6c0.3-0.4,0.5-0.8,0.4-1.3C34.5,17.3,34.3,16.8,34,16.5z
	 M31.8,14.2l-16.1,1c-0.3,0-0.6-0.1-0.8-0.3c-0.2-0.2-0.3-0.5-0.2-0.8l0,0l1-4.1c0.2-1.1,1.1-1.9,2.2-2l10.9-0.7
	c1.1-0.1,2.1,0.6,2.4,1.7l1.5,4c0.1,0.3,0,0.6-0.1,0.8C32.4,14,32.1,14.2,31.8,14.2z M30.4,9.2c-0.2-0.7-0.8-1.1-1.5-1.1L17.9,8.8
	c-0.7,0-1.3,0.5-1.4,1.2l0,0l-1,4.1c0,0,0,0.1,0,0.1c0,0,0.1,0,0.1,0l16.1-1c0,0,0.1,0,0.1,0c0,0,0,0,0-0.1
	C31.8,13.2,30.4,9.2,30.4,9.2z M17,17c0.5,0.5,0.9,1.1,0.9,1.8c0,0.7-0.2,1.4-0.7,1.9c-0.5,0.6-1.2,0.9-2,0.9
	c-0.7,0-1.3-0.2-1.8-0.7c-0.5-0.5-0.9-1.1-0.9-1.8c0-0.7,0.2-1.4,0.7-1.9c0.5-0.5,1.1-0.9,1.8-0.9C15.8,16.3,16.5,16.5,17,17z
	 M13.4,19.1c0.1,1,0.9,1.7,1.9,1.7c0.5,0,0.9-0.2,1.2-0.6c0.3-0.4,0.5-0.8,0.4-1.3c0-0.5-0.2-0.9-0.6-1.2c-0.4-0.3-0.8-0.5-1.3-0.4
	C14.1,17.2,13.4,18.1,13.4,19.1z M29.6,22.2l-10.6,0.7L18.9,22l10.6-0.7C29.5,21.3,29.6,22.2,29.6,22.2z M5.4,24.2l-1.6-3
	c-0.2-0.3,0-0.7,0.3-0.9c0,0,0,0,0,0c0.3-0.2,0.7,0,0.9,0.3l1.6,3c0.2,0.3,0,0.7-0.3,0.9c0,0,0,0,0,0C6,24.6,5.6,24.5,5.4,24.2z
	 M5.5,27.1c0,0.1,0,0.2-0.1,0.3c-0.2,0.3-0.6,0.4-0.9,0.3l-4.2-2.2C0,25.4-0.1,25,0.1,24.7c0,0,0,0,0,0c0.2-0.3,0.6-0.4,0.9-0.3
	l4.2,2.2C5.4,26.7,5.5,26.9,5.5,27.1z"/>
</svg>
