<svg xmlns="http://www.w3.org/2000/svg" width="512" height="512" viewBox="0 0 512 512"><path d="M207.692 442h-71.156c-8.65 0-15.688-7.25-15.688-15.9 0-1.196.138-2.586.41-3.752L155.217 273h-10.393l-33.44 147.19c-1.498 6.718-.29 13.665 3.404 19.48 3.692 5.813 9.43 10.026 16.152 11.525 1.834.408 3.717.804 5.596.804h71.155c13.694 0 25.003-10.996 25.746-24.67L241.796 273h-10.052l-8.388 153.846c-.46 8.31-7.34 15.154-15.665 15.154zM206.64 70h28.97c1.79 0 3.464.84 4.723 2.105s1.95 3.012 1.945 4.796c0 .137-.004.22-.014.36L235.822 198h10.052l6.452-120.173c.246-4.477-1.266-8.733-4.257-12.07-2.992-3.34-7.104-5.4-11.578-5.645-.297-.017-.593-.112-.887-.112h-28.892c-7.943 0-14.643 5.388-16.357 13.077L161.916 198h10.35l27.87-122.717c.653-3.028 3.39-5.283 6.505-5.283zM267.627 198h10.053l-6.422-120.73c-.216-3.68 2.61-6.95 6.297-7.166.126-.007.254-.104.38-.104h28.898c3.11 0 5.845 2.266 6.513 5.293L341.366 198h10.35L323.19 73.105C321.475 65.41 314.776 60 306.902 60h-28.967c-9.257 0-16.783 7.634-16.785 16.883 0 .31.01.583.025.892L267.627 198zM368.72 273h-10.35l34.007 149.3c1.96 8.417-3.295 17.097-11.72 19.062-1.165.27-2.367.64-3.57.64h-71.17c-8.323 0-15.203-6.853-15.662-15.163L281.932 273h-10.05l8.356 154.33c.74 13.674 12.05 24.67 25.746 24.67h71.154c6.885 0 13.347-2.855 18.193-7.746 4.85-4.895 7.5-11.437 7.47-18.325-.01-1.888-.226-3.915-.643-5.742L368.72 273z"/><path d="M443.66 215H68.34C58.677 215 51 222.6 51 232.263v5.72C51 247.652 58.667 256 68.34 256H79v20.63C79 287.37 87.497 296 98.238 296h10.533c10.753 0 19.23-8.62 19.23-19.373V255h257v21.565c0 10.74 8.775 19.435 19.517 19.435h10.334c10.74 0 19.15-8.695 19.15-19.436V255h9.553c9.742 0 17.447-7.373 17.447-17.024v-5.716c0-9.66-7.677-17.26-17.34-17.26zm.046 30h-14.254c-2.773 0-5.452 2.7-5.452 5.474v26.114c0 5.183-3.793 9.412-8.976 9.412h-10.51c-5.183 0-9.515-4.23-9.515-9.412v-26.114c0-2.772-2.14-5.474-4.913-5.474H123.262c-2.772 0-5.262 2.7-5.262 5.474v26.114c0 5.183-3.983 9.412-9.166 9.412H98.216c-5.183 0-9.216-4.23-9.216-9.412v-26.114c0-2.772-2.44-5.474-5.21-5.474H68.34c-4.13 0-7.34-2.877-7.34-6.962v-5.778c0-4.11 3.153-7.26 7.267-7.26H443.66c4.13 0 7.34 3.1 7.34 7.184v5.8c0 4.114-3.18 7.016-7.294 7.016z"/></svg>