<?xml version="1.0" encoding="utf-8"?>
<!-- Generator: Adobe Illustrator 21.0.2, SVG Export Plug-In . SVG Version: 6.00 Build 0)  -->
<svg version="1.1" id="Слой_1" xmlns="http://www.w3.org/2000/svg" xmlns:xlink="http://www.w3.org/1999/xlink" x="0px" y="0px"
	 viewBox="0 0 36 22" width="36" height="22" style="enable-background:new 0 0 36 22;" xml:space="preserve">
<style type="text/css">
	.st0{fill:#FFFFFF;}
</style>
<path class="st0" d="M36,22H0v-9.6l1.8-0.5c-0.3-0.5-0.5-1.3-0.2-1.7C1.9,9.7,2.4,9.4,3,9.4c0-0.1,0.1-0.2,0.2-0.2
	c0.2-0.2,0.5-0.3,0.9-0.3c0.6,0,1.2,0.4,1.8,0.9l0.8-1.4L6.6,8.3l0,0C6.4,8.1,6.2,7.8,6.3,7.6c0-0.1,0.2-0.5,0.9-0.5L7.8,7
	c0.5,0,0.9-0.3,0.9-0.7c0-0.1,0-0.2-0.2-0.3c0,0-0.1,0-0.2,0C8.3,6,7.9,6.3,7.8,6.4c-0.3,0.2-0.6,0.4-1,0.4c-0.5,0-0.9-0.4-0.9-0.8
	c0-0.2,0-0.3,0.1-0.4l0,0C5.9,5.3,5.8,5.2,5.8,5c0-0.2,0-0.5,0.2-0.7c0.3-0.4,0.6-0.8,0.8-1.3v0l0.2-0.4c0-0.1,0.1-0.2,0.2-0.3
	C7.5,1.9,7.7,1.4,8,1.1c0.2-0.3,0.5-0.5,0.7-0.6c0.3-0.2,0.5-0.3,0.8-0.4c0.9-0.3,2,0,3,0.6c0.7,0.5,1.3,1.3,1.6,2.2l0-0.2
	c0.4-1.2,1.4-2,2.5-2h18.1l-0.2,0.5c-0.6,1.3-1.6,2-3,2h-0.2c-0.6,1.3-1.6,1.9-3,1.9c-0.6,1.2-1.6,1.9-3,1.9h-5.4c0,0.2,0,0.3,0,0.5
	c0,0.2,0,0.3,0,0.4c0.4,0,0.9,0.1,1.4,0.1c0.8,0.1,1.6,0.1,2,0.2c0.2,0,0.3,0,0.5,0c0.8,0,1.5,0.1,2.4,0.2c1.3,0.2,2.4,0.8,3.3,1.9
	c0.3,0.4,0.6,0.8,0.9,1.3c0.4,0.7,0.7,1.5,1,2.2l0.1,0.2c0.4,1.1,0.7,2,1.1,2.7c0.7-0.3,1.6-0.1,2,0.5c0.1,0.2,0.1,0.3,0.2,0.4
	c0.2,0.3,0.3,0.5,0.6,0.8l0.4,0.5l-0.6,0.1c-0.2,0-0.5,0.1-0.7,0.1c-1.7,0-2.4-1.7-3.3-4v3.4c0,0.8-0.1,1-1.2,1.5l-0.8,0.3H36V22z
	 M34.6,18.2c-0.1-0.2-0.2-0.3-0.3-0.5c0-0.1-0.1-0.2-0.2-0.3c-0.2-0.3-0.7-0.4-1.1-0.3C33.5,17.9,34,18.2,34.6,18.2z M26.7,20.1
	c-0.3-0.6-0.3-1.1-0.2-1.6c0.2-0.4,0.5-0.7,0.9-0.8l1.4-0.3l-0.1-1.2c-0.1-0.3-0.2-0.4-0.5-0.5c-2.7-0.2-3.9-0.6-4.7-1
	c0.3,0.6,0.6,1.3,0.7,1.6c0.2,0.5,0,1-0.4,1.5l-2.1,2.3C21.8,20.1,26.7,20.1,26.7,20.1z M17.8,20.1h3l2.5-2.8
	c0.2-0.3,0.3-0.5,0.2-0.8c-0.1-0.3-0.5-1-0.7-1.6c-0.2-0.3-0.3-0.6-0.4-0.8c-0.8-0.5-1.4-0.5-1.4-0.5c-0.2,0-0.5,0-0.7,0.1l1.4,2.4
	c0.5,0.7,0.2,1.3-0.2,1.6l-1,1.1h-0.2l-1.4-0.3c-0.3,0-0.6,0-0.9,0.3C17.8,19.2,17.7,19.6,17.8,20.1z M17.2,20.1
	c-0.2-0.9,0.1-1.4,0.3-1.7c0.4-0.5,0.9-0.6,1.5-0.6l1.2,0.2l0.8-0.9c0.3-0.3,0.3-0.5,0.1-0.8l-1.5-2.6c-0.4,0.1-0.8,0.2-0.8,0.2
	c-0.3,0.1-0.6,0.2-0.9,0.3c-1.1,0.3-2.1,0.7-3.7,0.7c-0.2,0.8-0.3,2.2,0.1,2.8l0.2,0.4l-0.3,0.2c-0.3,0.1-0.3,0.2-0.3,0.3
	c0,0.3,0,0.8-0.3,1.1c-0.3,0.3-0.7,0.4-1.3,0.4l0,0C12.4,20.1,17.2,20.1,17.2,20.1z M8.4,20.1h0.9c-0.2-0.8-0.2-1.5,0.1-1.9
	c0.3-0.4,0.8-0.7,1.4-0.6H11c0.1,0,0.2-0.1,0.2-0.2v-2.7c-0.4,0.2-0.9,0.3-1.6,0.3H9.1l0.1-0.4c0-0.1,0-0.2,0-0.2
	c0.1-0.3,0.1-0.6,0.1-0.9c-0.3,0.2-0.6,0.3-0.9,0.3V20.1z M7.5,20.1l-3.2-0.9L1,20.1H7.5z M0.6,12.9v6.6l3.6-0.9l3.6,0.9v-6.6
	l-3.6-0.9C4.2,11.9,0.6,12.9,0.6,12.9z M9.7,0.8C9.5,0.8,9.2,1,9,1.1C8.8,1.2,8.6,1.4,8.5,1.6c0,0-0.1,0.1-0.1,0.1
	c0.2,0,0.5-0.1,0.7-0.1c0.2,0,0.3,0,0.5,0l1.4-0.9C10.6,0.6,10.1,0.6,9.7,0.8z M11.7,1.3c0,0,0,0,0-0.1L9.7,2.4H9.6
	c-0.2,0-0.4,0-0.5,0c-0.9,0-1.3,0.3-1.4,0.5L7.6,3C7.4,3.8,8.3,3.4,8.4,3.5c0.2,0.2-0.2,0.5-0.2,0.5C8.1,4.2,8.1,4.3,7.9,4.3
	c-0.2,0-0.3-0.1-0.3-0.2c0-0.2-0.2-0.3-0.3-0.3c-0.1,0-0.2,0-0.2,0.1C7,4.1,6.8,4.4,6.6,4.7C6.5,4.7,6.5,4.8,6.5,4.8
	c0,0.1,0.2,0.2,0.2,0.3L7,5.3L6.6,5.8v0C6.6,6,6.7,6,6.9,6C7,6,7.2,5.9,7.5,5.7c0.3-0.2,0.6-0.5,0.9-0.5c0.2,0,0.5,0.1,0.6,0.3
	c0.2,0.2,0.3,0.5,0.3,0.7c0,0.6-0.6,1.1-1.3,1.2l-0.3,0H7.2h0c-0.2,0-0.2,0-0.2,0.1S7,7.8,7,7.8C7.2,7.9,7.7,8,8.2,8
	c1.3-0.1,2-0.9,2-1.5c0-0.3-0.1-0.6-0.1-0.9C10,5.3,10,5.1,10,4.9c0-0.5,0.3-0.8,0.8-1l-0.2-0.9L10.8,3C11.4,2.6,11.8,1.9,11.7,1.3z
	 M13.7,3.9c-0.1-1-0.6-2-1.3-2.5c0.1,0.8-0.3,1.6-1,2.1l0.2,1.2h-0.4c-0.3,0-0.5,0.2-0.5,0.4c0,0.1,0,0.3,0.1,0.5
	c0.1,0.3,0.2,0.6,0.2,1v0c0,1.4-1.4,2.1-2.7,2.2H7.9c-0.1,0-0.3,0-0.4-0.1l-1,1.7c0.2,0.3,0.3,0.5,0.5,0.7l-0.4,0.6
	c-0.2-0.4-0.5-0.9-0.8-1.3C5.2,9.8,4.7,9.5,4.2,9.5c-0.2,0-0.3,0-0.4,0.2L3.7,9.9l-0.1,0.3l-0.3,0c-0.5-0.1-0.8,0.2-0.9,0.4
	c-0.1,0.2,0,0.8,0.4,1.2l1.5-0.4l4.2,1.1v0.8c0.4-0.1,0.8-0.3,1-0.5l0.6-0.6l0,0.8v0.4c0,0.4,0,0.7-0.1,1c1-0.1,1.3-0.6,1.6-1.6
	l0.1-0.2H12c0.5,0,0.9-0.4,0.9-0.9c0,0,0,0,0,0c0-0.3-0.2-0.6-0.4-0.8l-0.7-0.5l0.8-0.2c0.7-0.1,1.4-0.8,1.4-1.6
	c0-0.7-0.3-0.9-0.8-1.3l-0.3-0.2L13,7c0.2-0.3,0.4-1.1,0.5-1.7l0-0.2C13.6,4.6,13.7,4.2,13.7,3.9z M31.6,2.5c0.9,0,1.6-0.3,2.1-1.1
	h-5.1c-0.2,0.5-0.5,0.8-0.8,1.1C27.8,2.5,31.6,2.5,31.6,2.5z M30.6,3.1h-5.1c-0.2,0.5-0.5,0.9-0.9,1.2h3.8C29.4,4.4,30.1,4,30.6,3.1
	z M25.5,6.3c1,0,1.7-0.4,2.2-1.2h-5.1c-0.2,0.4-0.5,0.9-0.9,1.2C21.7,6.3,25.5,6.3,25.5,6.3z M29.2,10.7c-0.7-0.9-1.7-1.4-2.8-1.6
	C26.1,9,26,9,25.7,8.9c1.1,1.9,1.8,2.2,3.9,2.4C29.5,11.1,29.4,10.9,29.2,10.7z M29.9,19.3c0.3-0.1,0.6-0.3,0.7-0.4c0,0,0-0.1,0-0.4
	v-5.1c-0.2-0.4-0.3-0.8-0.5-1.1c-3-0.4-3.7-0.7-5.2-3.3c-0.3,0-0.6,0-0.9,0c-0.2,0-0.3,0-0.5,0c-0.4,0-1.2-0.1-2-0.2
	c-0.6-0.1-1.3-0.1-1.7-0.2c-0.3,0.3-0.7,0.5-1.1,0.5c-0.4,0-0.6-0.1-1.1-0.3l-0.3-0.2l0.5-0.5h0c0.5,0.2,0.6,0.3,0.9,0.3
	c0.5,0,0.9-0.4,0.9-0.9c0-0.4-0.1-0.5-0.1-0.5h-2.5c0,0,0.2-0.3,0.2-0.3s0.1-0.3,0.2-0.3h2.4c1,0,1.7-0.4,2.2-1.2h-3.9
	c0,0,0.2-0.3,0.2-0.3s0.1-0.3,0.2-0.3h4.4c1,0,1.7-0.4,2.2-1.2h-6c0,0,0.2-0.3,0.2-0.3c0,0,0.1-0.3,0.2-0.3h6.7
	c0.9,0,1.6-0.3,2.1-1.1H16.7c-0.9,0-1.6,0.6-1.9,1.5l-0.6,2.3C14.1,6,13.9,6.6,13.8,7c0.4,0.3,0.9,0.7,0.9,1.7c0,0.9-0.6,1.7-1.4,2
	c0.2,0.3,0.3,0.6,0.3,0.9c0,0.8-0.6,1.5-1.4,1.6c-0.1,0.3-0.2,0.6-0.4,0.8v3.3c0,0.5-0.4,0.9-0.8,0.9h-0.1c-0.2,0-0.7,0-0.9,0.4
	c-0.2,0.3-0.2,0.8,0,1.4c0.5,0.2,1.2,0,1.5-0.5l0.1-0.2h0.2c0.6,0,1.2,0,1.4-0.2c0-0.1,0.1-0.2,0.1-0.6c0,0,0-0.4,0.5-0.8
	c-0.5-1.2,0-3.1,0.1-3.3l0.1-0.3h0.3c1.6,0,2.6-0.3,3.7-0.6c0.3-0.1,0.6-0.2,0.9-0.3c0.1,0,1.4-0.5,2.4-0.5c0,0,0.9,0,1.9,0.6l0,0v0
	c0.9,0.6,1.7,1.1,5.3,1.4c0.8,0.1,1,0.6,1.1,1v0l0.2,1.8l-2,0.5c-0.2,0-0.4,0.2-0.5,0.4c-0.2,0.3,0,0.9,0.3,1.3
	C27.5,20.1,29.9,19.3,29.9,19.3z M1.5,17.2l2.3-0.6v0.7l-2.3,0.6C1.5,17.9,1.5,17.2,1.5,17.2z M1.5,15.6l2.3-0.6v0.7l-2.3,0.6
	C1.5,16.3,1.5,15.6,1.5,15.6z M1.5,14l2.3-0.6V14l-2.3,0.6V14z M7,14.7L4.6,14v-0.7L7,14C7,14,7,14.7,7,14.7z M7,16.3l-2.3-0.6v-0.7
	L7,15.6C7,15.6,7,16.3,7,16.3z M7,17.9l-2.3-0.6v-0.7L7,17.2C7,17.2,7,17.9,7,17.9z"/>
</svg>
