<?xml version="1.0" encoding="utf-8"?>
<!-- Generator: Adobe Illustrator 21.0.2, SVG Export Plug-In . SVG Version: 6.00 Build 0)  -->
<svg version="1.1" id="Слой_1" xmlns="http://www.w3.org/2000/svg" xmlns:xlink="http://www.w3.org/1999/xlink" x="0px" y="0px"
	 viewBox="0 0 162 22" width="162" height="22" style="enable-background:new 0 0 162 22;" xml:space="preserve">
<style type="text/css">
	.st0{fill:#FFFFFF;}
</style>
<path class="st0" d="M162,20.7v1.1h-8.4v-1.1h2.6v-19h-2.6V0.6h8.4v1.1h-2.7v19H162z M134.1,20.8h2.5c0,0-2.2-5.6-2.2-5.6h-6.8
	c0,0-1.3,3.4-1.2,4.4c0.1,1.3,2,1.3,2.2,1.3v1h-5c-8,0-0.8-9.7-6.9-10.2h-3.5v9.2h2.6v1h-8.4v-1.1h2.6V1.6h-2.6v-1h10.2
	c3.6,0.2,5.8,1.7,5.8,4.9c0,4.6-4.7,5.6-4.7,5.6c0,0,1.8,0.1,2.9,1.2c0.9,1,1,3.2,1,4.1V20c0,0.2-0.1,0.7,0.9,0.6
	c1-0.2,1.5-1.8,1.5-1.8c0,0,6.4-18.8,6.3-18.8h1.1l7.6,20.7h2V1.6h-2.6v-1h8.5v1.1h-2.6v19.1h0.2c4.1,0,5.6-0.9,6.3-6.8h0.7v7.8
	h-18.6L134.1,20.8L134.1,20.8z M120,6c0-1-0.1-3.9-2.6-4.3h-4.2v8.8h3.3C119,10.5,120,8.3,120,6z M130.9,5l-3,9.1h6.1L130.9,5z
	 M91.3,20.7h2.8V1.6h-2.4c-0.8,0-2.5,0.1-2.6,1.7v18.5h-0.4c-0.1,0-7.4-10.9-11.2-16.6l0,13.7c0,1.5,2.2,2.1,3.1,2.1v0.8h-7.2V21
	c0.9,0,3.1-0.6,3.1-2.1V3.3c-0.1-1.6-1.6-1.7-2.6-1.7H73v-1h5.3l9.8,14.8V3.3c-0.1-1.6-1.9-1.7-2.6-1.7H85v-1h21v7.4h-0.6
	c-0.9-6.7-2.8-6.4-8.1-6.4v8.7h1c3.2,0.1,3.3-4,3.3-4.1c0,0,0.6,0,0.6,0v9.6h-0.7c-0.4-3.3-1.4-4.4-3.3-4.4h-1.1v9.3h1.9
	c4.1,0,5.6-0.9,6.3-6.8h0.8v7.8H91.3L91.3,20.7L91.3,20.7z M56.9,20.8h2.8V1.7h-2.5v-1h14.4v7.4H71c-0.9-6.6-2.8-6.4-8.1-6.4v8.7h1
	c3.2,0.1,3.3-4,3.3-4.1c0,0,0.6,0,0.6,0v9.6h-0.7c-0.4-3.3-1.4-4.4-3.3-4.4h-1.1v9.3h1.9c4.1,0,5.6-0.9,6.3-6.8h0.8v7.8H56.9
	C56.9,21.8,56.9,20.8,56.9,20.8z M54.8,21.8c0,0-2.6-2.1-2.6-2.1C51.4,20.9,50,22,47.9,22c-6.5,0-8.3-6.8-8.3-10.9
	c0-4.4,2.2-10.7,8.3-10.7c3.2,0,4.3,1.7,4.3,1.7c0,0,2.4-1.8,2.4-1.8c0,0,0,6.3,0,7.7h-0.6c-0.8-3.2-2.6-6.8-6.1-6.8
	c-5,0-4.8,8-4.8,9.9c0,2.1-0.4,9.9,4.8,9.9c0.8,0,3.3-0.8,3.7-2.5v-6.9h-2.8v-0.9H57v0.9h-2.2C54.8,11.7,54.8,21.8,54.8,21.8z
	 M0,12.2l1.8-0.5c-0.3-0.5-0.5-1.3-0.2-1.7C1.9,9.6,2.4,9.3,3,9.3c0-0.1,0.1-0.2,0.2-0.2c0.2-0.2,0.5-0.3,0.9-0.3
	c0.6,0,1.2,0.4,1.8,0.9l0.8-1.4L6.6,8.2l0,0C6.4,8,6.2,7.8,6.3,7.5c0-0.1,0.2-0.5,0.9-0.5l0.6-0.1c0.5,0,0.9-0.3,0.9-0.7
	c0-0.1,0-0.2-0.2-0.3c0,0-0.1,0-0.2,0C8.3,6,7.9,6.2,7.8,6.3c-0.3,0.2-0.6,0.4-1,0.4c-0.5,0-0.9-0.4-0.9-0.8c0-0.2,0-0.3,0.1-0.4
	l0,0C5.9,5.3,5.8,5.1,5.8,4.9c0-0.2,0-0.5,0.2-0.7c0.3-0.4,0.6-0.8,0.8-1.3v0l0.2-0.4c0-0.1,0.1-0.2,0.2-0.3C7.5,1.8,7.7,1.4,8,1.1
	c0.2-0.3,0.5-0.5,0.7-0.6c0.3-0.2,0.5-0.3,0.8-0.4c0.9-0.3,2,0,3,0.6c0.7,0.5,1.3,1.2,1.6,2.2l0-0.2c0.4-1.2,1.4-2,2.5-2h18.1
	l-0.2,0.5c-0.6,1.3-1.6,2-3,2h-0.2c-0.6,1.3-1.6,1.9-3,1.9c-0.6,1.2-1.6,1.8-3,1.8h-5.4c0,0.2,0,0.3,0,0.5c0,0.2,0,0.3,0,0.4
	c0.4,0,0.9,0.1,1.4,0.1C22.3,8,23.1,8,23.5,8c0.2,0,0.3,0,0.5,0c0.8,0,1.5,0.1,2.4,0.2c1.3,0.2,2.4,0.8,3.3,1.8
	c0.3,0.4,0.6,0.8,0.9,1.3c0.4,0.7,0.7,1.5,1,2.2l0.1,0.2c0.4,1.1,0.7,2,1.1,2.7c0.7-0.3,1.6-0.1,2,0.5c0.1,0.2,0.1,0.3,0.2,0.4
	c0.2,0.3,0.3,0.5,0.6,0.8l0.4,0.5l-0.6,0.1c-0.2,0-0.5,0.1-0.7,0.1c-1.7,0-2.4-1.7-3.3-4v3.3c0,0.8-0.1,1-1.2,1.5l-0.8,0.3H36v1.8H0
	V12.2z M34.6,18.1c-0.1-0.2-0.2-0.3-0.3-0.5c0-0.1-0.1-0.2-0.2-0.3C34,17,33.5,16.9,33.1,17C33.5,17.7,34,18.1,34.6,18.1z M9.7,0.7
	C9.5,0.8,9.2,0.9,9,1.1C8.8,1.2,8.6,1.4,8.5,1.6c0,0-0.1,0.1-0.1,0.1c0.2,0,0.5-0.1,0.7-0.1c0.2,0,0.3,0,0.5,0l1.4-0.9
	C10.6,0.6,10.1,0.6,9.7,0.7z M11.7,1.3c0,0,0,0,0-0.1L9.7,2.4H9.6c-0.2,0-0.4,0-0.5,0c-0.9,0-1.3,0.3-1.4,0.5L7.6,3
	C7.4,3.7,8.3,3.4,8.4,3.5C8.6,3.7,8.2,4,8.2,4C8.1,4.1,8.1,4.2,7.9,4.2C7.8,4.2,7.7,4.1,7.7,4c0-0.2-0.2-0.3-0.3-0.3
	c-0.1,0-0.2,0-0.2,0.1C7,4.1,6.8,4.4,6.6,4.6C6.5,4.7,6.5,4.7,6.5,4.8C6.5,4.9,6.6,5,6.7,5L7,5.2L6.6,5.8v0C6.6,5.9,6.7,6,6.9,6
	C7,6,7.2,5.9,7.5,5.7c0.3-0.2,0.6-0.5,0.9-0.5c0.2,0,0.5,0.1,0.6,0.3C9.2,5.7,9.3,6,9.3,6.2c0,0.6-0.6,1.1-1.3,1.2l-0.3,0H7.2h0
	c-0.2,0-0.2,0-0.2,0.1c0,0.1,0,0.2,0.1,0.1c0.2,0.1,0.7,0.2,1.2,0.2c1.3-0.1,2-0.9,2-1.5c0-0.3-0.1-0.6-0.1-0.9C10,5.2,10,5,10,4.9
	c0-0.5,0.3-0.8,0.8-1L10.6,3l0.2-0.1C11.4,2.6,11.8,1.9,11.7,1.3z M13.7,3.9c-0.1-1-0.6-2-1.3-2.5c0.1,0.8-0.3,1.6-1,2.1l0.2,1.2
	h-0.4c-0.3,0-0.5,0.2-0.5,0.4c0,0.1,0,0.3,0.1,0.5c0.1,0.3,0.2,0.6,0.2,1v0c0,1.4-1.4,2.1-2.7,2.1H7.9c-0.1,0-0.3,0-0.4-0.1l-1,1.7
	c0.2,0.3,0.3,0.5,0.5,0.7l-0.4,0.6c-0.2-0.4-0.5-0.9-0.8-1.2C5.2,9.7,4.7,9.4,4.2,9.4c-0.2,0-0.3,0-0.4,0.2L3.7,9.8L3.6,10l-0.3,0
	c-0.5-0.1-0.8,0.2-0.9,0.4c-0.1,0.2,0,0.8,0.4,1.2l1.5-0.4l4.2,1.1V13c0.4-0.1,0.8-0.3,1-0.5L10,12l0,0.8v0.4c0,0.4,0,0.7-0.1,1
	c1-0.1,1.3-0.6,1.6-1.5l0.1-0.2H12c0.5,0,0.9-0.4,0.9-0.9c0-0.3-0.2-0.6-0.4-0.8l-0.7-0.5l0.8-0.2C13.3,10,14,9.3,14,8.6
	c0-0.7-0.3-0.9-0.8-1.2l-0.3-0.2L13,6.9c0.2-0.3,0.4-1.1,0.5-1.7l0-0.2C13.6,4.6,13.7,4.2,13.7,3.9z M31.6,2.4
	c0.9,0,1.6-0.3,2.1-1.1h-5.1c-0.2,0.5-0.5,0.8-0.8,1.1H31.6z M30.6,3.1h-5.1C25.3,3.6,25,4,24.6,4.3h3.8C29.4,4.3,30.1,3.9,30.6,3.1
	z M25.5,6.2c1,0,1.7-0.4,2.2-1.2h-5.1c-0.2,0.4-0.5,0.8-0.9,1.2C21.7,6.2,25.5,6.2,25.5,6.2z M29.2,10.6c-0.7-0.9-1.7-1.4-2.8-1.6
	c-0.2,0-0.4-0.1-0.6-0.1c1.1,1.8,1.8,2.1,3.9,2.4C29.5,11,29.4,10.8,29.2,10.6z M26.7,19.9c-0.3-0.6-0.3-1.1-0.2-1.6
	c0.2-0.4,0.5-0.7,0.9-0.8l1.4-0.3l-0.1-1.2c-0.1-0.3-0.2-0.4-0.5-0.5c-2.7-0.2-3.9-0.6-4.7-1c0.3,0.6,0.6,1.2,0.7,1.6
	c0.2,0.5,0,1-0.4,1.5l-2.1,2.3C21.7,19.9,26.7,19.9,26.7,19.9z M17.8,19.9h3l2.5-2.7c0.2-0.3,0.3-0.5,0.2-0.8
	c-0.1-0.3-0.5-1-0.7-1.6c-0.2-0.3-0.3-0.6-0.4-0.8c-0.8-0.5-1.4-0.5-1.4-0.5c-0.2,0-0.5,0-0.7,0.1l1.4,2.3c0.5,0.7,0.2,1.2-0.2,1.6
	l-1,1.1h-0.2l-1.4-0.3c-0.3,0-0.6,0-0.9,0.3C17.8,19,17.7,19.4,17.8,19.9z M17.2,19.9c-0.2-0.9,0.1-1.4,0.3-1.7
	c0.4-0.5,0.9-0.6,1.5-0.6l1.2,0.2L21,17c0.3-0.3,0.3-0.5,0.1-0.8l-1.5-2.6c-0.4,0.1-0.8,0.2-0.8,0.2c-0.3,0.1-0.6,0.2-0.9,0.3
	c-1.1,0.3-2.1,0.7-3.7,0.7c-0.2,0.8-0.3,2.1,0.1,2.8l0.2,0.4l-0.3,0.2c-0.3,0.1-0.3,0.2-0.3,0.3c0,0.3,0,0.8-0.3,1.1
	c-0.3,0.3-0.7,0.4-1.3,0.4l0,0C12.3,19.9,17.2,19.9,17.2,19.9z M10,19.8c0.5,0.2,1.2,0,1.5-0.5l0.1-0.2h0.2c0.6,0,1.2,0,1.4-0.2
	c0-0.1,0.1-0.2,0.1-0.6c0,0,0-0.4,0.5-0.8c-0.5-1.2,0-3,0.1-3.3l0.1-0.3h0.3c1.6,0,2.6-0.3,3.7-0.6c0.3-0.1,0.6-0.2,0.9-0.3
	c0.1,0,1.4-0.5,2.4-0.5c0,0,0.9,0,1.9,0.6l0,0v0c0.9,0.6,1.7,1.1,5.3,1.4c0.8,0.1,1,0.6,1.1,1v0l0.2,1.8l-2,0.5
	c-0.2,0-0.4,0.2-0.5,0.4c-0.2,0.3,0,0.9,0.3,1.3l2.4-0.8c0.3-0.1,0.6-0.3,0.7-0.4c0,0,0-0.1,0-0.4v-5c-0.2-0.4-0.3-0.8-0.5-1.1
	c-3-0.4-3.7-0.7-5.2-3.2c-0.3,0-0.6,0-0.9,0c-0.2,0-0.3,0-0.5,0c-0.4,0-1.2-0.1-2-0.2c-0.6-0.1-1.3-0.1-1.7-0.2
	C19.4,8.8,19,9,18.6,9c-0.4,0-0.6-0.1-1.1-0.3l-0.3-0.2l0.5-0.5h0c0.5,0.2,0.6,0.3,0.9,0.3c0.5,0,0.9-0.4,0.9-0.9c0,0,0,0,0,0
	c0-0.4-0.1-0.5-0.1-0.5h-2.5c0,0,0.2-0.3,0.2-0.3s0.1-0.3,0.2-0.3h2.4c1,0,1.7-0.4,2.2-1.2h-3.9c0,0,0.2-0.3,0.2-0.3
	s0.1-0.3,0.2-0.3h4.4c1,0,1.7-0.4,2.2-1.2h-6c0,0,0.2-0.3,0.2-0.3c0,0,0.1-0.3,0.2-0.3h6.7c0.9,0,1.6-0.3,2.1-1.1H16.7
	c-0.9,0-1.6,0.6-1.9,1.5l-0.6,2.3c-0.2,0.7-0.4,1.3-0.5,1.7c0.4,0.3,0.9,0.7,0.9,1.7c0,0.9-0.6,1.7-1.4,2c0.2,0.3,0.3,0.6,0.3,0.9
	c0,0.8-0.6,1.5-1.4,1.6c-0.1,0.3-0.2,0.6-0.4,0.8v3.3c0,0.5-0.4,0.9-0.8,0.9h-0.1c-0.2,0-0.7,0-0.9,0.4C9.8,18.7,9.8,19.2,10,19.8z
	 M8.4,19.9h0.9c-0.2-0.8-0.2-1.5,0.1-1.9c0.3-0.4,0.8-0.7,1.4-0.6h0.1c0.1,0,0.2-0.1,0.2-0.2v-2.7c-0.4,0.2-0.9,0.3-1.6,0.3H9.1
	l0.1-0.4c0-0.1,0-0.2,0-0.2c0.1-0.3,0.1-0.6,0.1-0.9c-0.3,0.2-0.6,0.3-0.9,0.3C8.4,13.7,8.4,19.9,8.4,19.9z M7.5,19.9l-3.2-0.9
	L1,19.9C1,19.9,7.5,19.9,7.5,19.9z M0.6,19.3l3.6-0.9l3.6,0.9v-6.6l-3.6-0.9l-3.6,0.9C0.6,12.8,0.6,19.3,0.6,19.3z M1.5,17l2.3-0.6
	v0.7l-2.3,0.6C1.5,17.7,1.5,17,1.5,17z M1.5,15.4l2.3-0.6v0.7l-2.3,0.6C1.5,16.1,1.5,15.4,1.5,15.4z M1.5,13.8l2.3-0.6v0.7l-2.3,0.6
	V13.8z M7,14.5l-2.3-0.6v-0.7L7,13.8C7,13.8,7,14.5,7,14.5z M7,16.1l-2.3-0.6v-0.7L7,15.4C7,15.4,7,16.1,7,16.1z M7,17.7l-2.3-0.6
	v-0.7L7,17C7,17,7,17.7,7,17.7z"/>
</svg>
