<svg xmlns="http://www.w3.org/2000/svg" viewBox="0 0 84.1 120"><title>operateur</title><g id="Calque_2" data-name="Calque 2"><g id="Calque_1-2" data-name="Calque 1"><path d="M31.28,86.58l-7.8,4.21L26.93,70.7a23.65,23.65,0,0,1-3.8-1.7c-.55-.28-1-.62-1.52-.9A28.9,28.9,0,0,0,0,96v24H40.32V95.63l-9-9Z" fill="#c5281c"/><path d="M78.23,78.5A29,29,0,0,0,62.55,68.08a21.64,21.64,0,0,1-5.39,2.62l3.45,20.09-7.8-4.21-.07-.07-9,9.11V120H84.1V96A28.1,28.1,0,0,0,78.23,78.5ZM72.5,103.29H56.75V99.77H72.5Z" fill="#c5281c"/><path d="M80.58,40.18c-1,0-1.86-.62-1.86-1.38v-13a18.54,18.54,0,0,0-2-8.29A25.25,25.25,0,0,0,65.8,7,37.12,37.12,0,0,0,48.47,2.83H35.7A37.33,37.33,0,0,0,18.37,7,24.88,24.88,0,0,0,7.46,17.54a.07.07,0,0,1-.07.07,18.26,18.26,0,0,0-2,8.22v13c0,.76-.83,1.38-1.86,1.38s-1.86-.62-1.86-1.38v-13A20.41,20.41,0,0,1,3.94,16.5.07.07,0,0,1,4,16.43,28.57,28.57,0,0,1,16.22,4.62,41.48,41.48,0,0,1,35.63,0h12.7a41.48,41.48,0,0,1,19.4,4.63A28.43,28.43,0,0,1,80,16.5a20.2,20.2,0,0,1,2.28,9.32v13C82.37,39.56,81.54,40.18,80.58,40.18Z" fill="#c5281c"/><path d="M11.46,38.6v9.6a4,4,0,0,1-3.93,4.07H5.8a4,4,0,0,1-4.07-3.93s0-.09,0-.14V33.9a4,4,0,0,1,3.93-4.07H7.39a4,4,0,0,1,4.07,3.93s0,.09,0,.14Z" fill="none" stroke="#c5281c" stroke-miterlimit="10"/><path d="M66,65.39H44.12a1.45,1.45,0,0,1,0-2.9H66A8.4,8.4,0,0,0,68.63,62a29.94,29.94,0,0,0,4.14-13,3.36,3.36,0,0,1-.07-.83V42.74a30.8,30.8,0,1,0-6.35,22.51A.45.45,0,0,1,66,65.39Z" fill="#c5281c"/><path d="M82.37,33.9V48.19a4,4,0,0,1-3.93,4.07H77.2V29.83h1.1a4,4,0,0,1,4.07,3.93S82.37,33.85,82.37,33.9Z" fill="#c5281c"/><path d="M1.73,33.9V48.19a4,4,0,0,0,3.92,4.08H6.9V29.83H5.8A4.08,4.08,0,0,0,1.73,33.9Z" fill="#c5281c"/><path d="M78.3,29.83H76.71a4,4,0,0,0-4.07,3.93s0,.09,0,.14V48.19a4,4,0,0,0,1,2.62v4.07A7.69,7.69,0,0,1,66,62.54H44a1.45,1.45,0,0,0,0,2.9H65.94A10.61,10.61,0,0,0,76.5,54.89V52.27h1.8a4,4,0,0,0,4.07-3.93s0-.09,0-.14V33.9a4,4,0,0,0-3.93-4.07Z" fill="none" stroke="#c5281c" stroke-miterlimit="10"/></g></g></svg>