<?xml version="1.0" encoding="utf-8"?>
<!-- Generator: Adobe Illustrator 21.0.2, SVG Export Plug-In . SVG Version: 6.00 Build 0)  -->
<svg version="1.1" id="Слой_1" xmlns="http://www.w3.org/2000/svg" xmlns:xlink="http://www.w3.org/1999/xlink" x="0px" y="0px"
	 viewBox="0 0 38 38" style="enable-background:new 0 0 38 38;" xml:space="preserve">
<style type="text/css">
	.st0{fill:#C5291D;}
</style>
<path class="st0" d="M29.7,30.8c-4.2,0-7.6-3.5-7.6-7.7s3.4-7.7,7.6-7.7s7.6,3.5,7.6,7.7S33.9,30.8,29.7,30.8z M29.7,16.3
	c-3.7,0-6.7,3-6.7,6.8s3,6.8,6.7,6.8s6.7-3,6.7-6.8S33.4,16.3,29.7,16.3z M32.6,23.6c-0.3,0-0.6-0.3-0.6-0.6l0,0
	c0-0.3,0.3-0.6,0.6-0.6s0.6,0.3,0.6,0.6C33.2,23.3,32.9,23.6,32.6,23.6z M29.8,23.6c-0.3,0-0.6-0.3-0.6-0.6l0,0
	c0-0.3,0.3-0.6,0.6-0.6c0.3,0,0.6,0.3,0.6,0.6C30.5,23.3,30.2,23.6,29.8,23.6z M27.1,23.6c-0.3,0-0.6-0.3-0.6-0.6l0,0
	c0-0.3,0.3-0.6,0.6-0.6c0.3,0,0.6,0.3,0.6,0.6C27.7,23.3,27.4,23.6,27.1,23.6z M19.2,22.5c0.2,0,0.4,0.2,0.4,0.5
	c0,0.2-0.2,0.5-0.4,0.5h-4.6c-0.2,0-0.4-0.2-0.4-0.5l0,0c0-0.2,0.2-0.5,0.4-0.5H19.2z M13.9,19.2c0,1.5-1.2,2.7-2.7,2.7
	s-2.7-1.2-2.7-2.7s1.2-2.7,2.7-2.7S13.9,17.7,13.9,19.2z M9.4,19.2c0,1,0.8,1.8,1.8,1.8s1.8-0.8,1.8-1.8s-0.8-1.8-1.8-1.8
	S9.4,18.2,9.4,19.2z M11.9,14.4h12.7c0.2,0,0.4,0.2,0.4,0.5s-0.2,0.5-0.4,0.5H11.9c-0.3,0-0.6-0.1-0.8-0.4c-0.2-0.2-0.3-0.6-0.2-0.9
	l1.2-4.2c0.3-1.1,1.2-1.9,2.3-1.9h11.1c1.1,0,2.1,0.8,2.3,1.9l0.6,2.1c0.1,0.2-0.1,0.5-0.3,0.6c-0.2,0.1-0.5-0.1-0.6-0.3l0,0
	l-0.6-2.1l0,0c0-0.8-0.6-1.3-1.3-1.3H14.5c-0.7,0-1.3,0.5-1.5,1.2l0,0l-1.2,4.2C11.8,14.3,11.8,14.4,11.9,14.4L11.9,14.4z M30,12.6
	c-0.2,0.1-0.5-0.1-0.6-0.3l0,0l-0.8-2.5l0,0c-0.3-1.4-1.6-2.5-3.1-2.5h-11c-1.5,0-2.7,1-3.1,2.5l0,0L10.1,14c0,0.1-0.1,0.2-0.2,0.2
	l-1.1,0.9c-1,0.7-1.6,1.8-1.6,3v7.6c0,0.6,0.5,1,1,1h0.2c0.2,0,0.4,0.2,0.4,0.4v2.6c0,0.5,0.4,0.8,0.8,0.8h2.8
	c0.5,0,0.8-0.4,0.8-0.8v-2.6c0-0.2,0.2-0.5,0.4-0.5h4c0.2,0,0.4,0.2,0.4,0.5c0,0.4,0.1,0.5,0.3,0.6c0.3,0.1,0.8,0.1,1.3,0.1h0.8
	c0.2,0,0.4,0.2,0.4,0.5c0,0.2-0.2,0.5-0.4,0.5h-0.6c-0.6,0-1.2,0-1.6-0.2c-0.5-0.2-0.8-0.5-0.9-1h-3.1v2.1c0,1-0.8,1.7-1.7,1.7H9.7
	c-1,0-1.7-0.8-1.7-1.7v-2.1c-0.9-0.1-1.6-0.9-1.6-1.9v-7.6c0-1.5,0.7-2.9,2-3.7l1.1-0.8l1.2-4c0.4-1.8,2-3.1,3.9-3.1h11.1
	c1.9,0,3.5,1.3,3.9,3.1l0.8,2.5C30.3,12.3,30.2,12.5,30,12.6z"/>
</svg>
