<?xml version="1.0" encoding="utf-8"?>
<!-- Generator: Adobe Illustrator 21.0.2, SVG Export Plug-In . SVG Version: 6.00 Build 0)  -->
<svg version="1.1" id="Слой_1" xmlns="http://www.w3.org/2000/svg" xmlns:xlink="http://www.w3.org/1999/xlink" x="0px" y="0px"
	 viewBox="0 0 38 38" style="enable-background:new 0 0 38 38;" xml:space="preserve">
<style type="text/css">
	.st0{fill:#C5291D;}
</style>
<path class="st0" d="M34.5,14.4c-0.2,0.1-0.5-0.1-0.6-0.3l-1.3-4.2l0,0c-0.3-1.4-1.6-2.5-3.1-2.5H18.4c-1.5,0-2.8,1-3.1,2.5l0,0
	L14,14.1c0,0.1-0.1,0.2-0.2,0.2l-1.3,0.9c-1,0.7-1.6,1.8-1.6,3v7.6c0,0.6,0.5,1,1,1h0.2c0.2,0,0.5,0.2,0.5,0.5v2.6
	c0,0.5,0.4,0.8,0.8,0.8h2.8c0.5,0,0.8-0.4,0.8-0.8v-2.6c0-0.2,0.2-0.5,0.5-0.5h4c0.3,0,0.5,0.2,0.5,0.5c0,0.4,0.1,0.5,0.4,0.6
	s0.8,0.1,1.3,0.1h0.8c0.2,0,0.5,0.2,0.5,0.5c0,0.2-0.2,0.5-0.5,0.5h-0.8c-0.6,0-1.2,0-1.7-0.2s-0.8-0.5-0.9-1h-3.2v2.1
	c0,1-0.8,1.7-1.7,1.7h-2.7c-1,0-1.7-0.8-1.7-1.7v-2.1c-1-0.3-1.7-1.1-1.7-2.1v-7.6c0-1.5,0.7-2.9,2-3.7l1.1-0.8l1.2-4
	c0.4-1.8,2.1-3.1,4-3.1h11.2c1.9,0,3.5,1.3,4,3.1l1.3,4.2C34.9,14.1,34.8,14.3,34.5,14.4L34.5,14.4z M23.2,22.6
	c0.2,0,0.5,0.2,0.5,0.5c0,0.2-0.2,0.5-0.5,0.5h-4.6c-0.2,0-0.5-0.2-0.5-0.4c0-0.2,0.2-0.5,0.4-0.5l0,0
	C18.6,22.6,23.2,22.6,23.2,22.6z M17.8,19.3c0,1.5-1.2,2.7-2.7,2.7s-2.7-1.2-2.7-2.7s1.2-2.7,2.7-2.7C16.5,16.5,17.8,17.8,17.8,19.3
	z M13.2,19.3c0,1,0.8,1.8,1.8,1.8s1.8-0.8,1.8-1.8S16,17.5,15,17.5C14,17.4,13.2,18.2,13.2,19.3z M14.8,14.2l1.3-4.2
	c0.3-1.1,1.2-1.9,2.4-1.9h11.2c1.1,0,2.1,0.8,2.4,1.9l1.2,4.2l0,0c0.1,0.3,0,0.6-0.2,0.9c-0.2,0.2-0.5,0.4-0.8,0.4H15.8
	c-0.3,0-0.6-0.1-0.8-0.4S14.7,14.5,14.8,14.2L14.8,14.2z M15.7,14.5C15.7,14.5,15.8,14.5,15.7,14.5h16.5h0.1c0,0,0,0,0-0.1l-1.2-4.2
	l0,0C30.9,9.5,30.3,9,29.6,9H18.4c-0.7,0-1.3,0.5-1.5,1.2l0,0L15.7,14.5C15.7,14.4,15.7,14.5,15.7,14.5z M32.1,18.5c1.7,0,3,1.4,3,3
	c0,0.7-0.3,1.3-0.7,1.7l-0.7,0.7c-0.6,0.5-0.9,1-0.9,2.1h-1.5v-0.4c0-0.8,0.3-1.6,0.9-2.1l0.9-1c0.3-0.2,0.5-0.6,0.5-1
	c0-0.8-0.7-1.5-1.5-1.5c-0.8,0-1.5,0.7-1.5,1.5h-1.5C29.1,19.8,30.4,18.5,32.1,18.5z M32.8,29h-1.5v-1.5h1.5V29z"/>
</svg>
