<?xml version="1.0" encoding="utf-8"?>
<!-- Generator: Adobe Illustrator 22.0.1, SVG Export Plug-In . SVG Version: 6.00 Build 0)  -->
<svg version="1.1" id="securite" xmlns="http://www.w3.org/2000/svg" xmlns:xlink="http://www.w3.org/1999/xlink" x="0px" y="0px"
	 viewBox="0 0 38.1 65" style="enable-background:new 0 0 38.1 65;" xml:space="preserve">
<style type="text/css">
	.st0{fill:#C5281C;}
</style>
<g>
	<path class="st0" d="M19.8,16.4c4.5,0,8.2-3.7,8.2-8.2S24.3,0,19.8,0s-8.2,3.7-8.2,8.2S15.3,16.4,19.8,16.4z M19.8,2.4
		c3.2,0,5.8,2.6,5.8,5.8S23,14,19.8,14S14,11.4,14,8.2S16.6,2.4,19.8,2.4z"/>
	<path class="st0" d="M36.9,43.4c0-0.2,0.1-0.5,0.1-0.7v-1.6v-1.5V28.4c0-4.4-2.5-8.2-6.1-10.1l4.9-5.4h-7.4L24.5,17H14
		C7.8,17,2.7,22.1,2.7,28.4v11.2V41v0.1L0,44.1l0.2,8.5l0.4-0.5c0.8-0.9,2.6-2.7,5.2-4.5C6.5,47.8,7.1,48,7.7,48
		c-0.3,0.7-0.4,1.5-0.4,2.3V65h2.4V50.4c0-2.2,1.8-4.1,4.1-4.1s4.1,1.8,4.1,4.1V65h1.7h0.7h1.7V50.4c0-2.2,1.8-4.1,4.1-4.1
		s4.1,1.8,4.1,4.1V65h2.4V50.4c0-0.8-0.2-1.6-0.4-2.3c0.8-0.1,1.5-0.3,2.2-0.6c2.5,1.8,3.9,3.3,3.9,3.3v-6.3
		C38,44.4,37.6,44,36.9,43.4z M34.6,28.4v11.2V41v1.6c0,1.7-1.3,3-3,3c-1.7,0-3-1.3-3-3v-13h-2.4v8.5c-1.9-0.4-4-0.7-6.3-0.7
		c-2.3,0-4.4,0.3-6.3,0.8v-0.5l5.5-6.2l10.2-11.4C32.4,21.6,34.6,24.7,34.6,28.4z M5,28.4c0-4.9,4-8.9,8.9-8.9h8.4L11.2,31.7h-0.1
		v10.9c0,1.7-1.3,3-3,3s-3-1.3-3-3V41v-1.5L5,28.4L5,28.4z M19.8,48.3c-0.9-2.6-3.3-4.4-6.1-4.4c-0.1,0-0.3,0-0.4,0l0,0
		c2-0.6,4.2-1,6.5-1s4.5,0.3,6.4,0.9c0,0.1,0,0.1,0,0.2c-0.1,0-0.3,0-0.4,0C23.1,43.9,20.7,45.7,19.8,48.3z"/>
</g>
</svg>
