<?xml version="1.0" encoding="utf-8"?>
<!-- Generator: Adobe Illustrator 22.0.1, SVG Export Plug-In . SVG Version: 6.00 Build 0)  -->
<svg version="1.1" id="roue" xmlns="http://www.w3.org/2000/svg" xmlns:xlink="http://www.w3.org/1999/xlink" x="0px" y="0px"
	 viewBox="0 0 55 55" style="enable-background:new 0 0 55 55;" xml:space="preserve">
<style type="text/css">
	.st0{fill:#C5281C;}
</style>
<g>
	<g>
		<path class="st0" d="M27.5,55C12.3,55,0,42.6,0,27.5S12.3,0,27.5,0S55,12.4,55,27.5S42.6,55,27.5,55z M27.5,9.6
			c-9.9,0-17.9,8-17.9,17.9s8,17.9,17.9,17.9s17.9-8,17.9-17.9S37.3,9.6,27.5,9.6z"/>
	</g>
	<g>
		<circle class="st0" cx="27.5" cy="27.5" r="5.6"/>
	</g>
	<g>
		<path class="st0" d="M27.5,11C18.4,11,11,18.4,11,27.5S18.4,44,27.5,44S44,36.6,44,27.5S36.6,11,27.5,11z M39.4,18.8
			c1.4,2,2.4,4.3,2.7,6.8L38,24.8c-0.2-0.8-0.6-1.7-1-2.4L39.4,18.8z M37.3,27.5c0,5.4-4.4,9.8-9.8,9.8s-9.8-4.4-9.8-9.8
			s4.4-9.8,9.8-9.8C32.9,17.7,37.3,22.1,37.3,27.5z M35.8,20.5c-0.3-0.4-0.7-0.8-1.1-1.1l3.2-2.1L35.8,20.5z M36.4,15.8l-3.5,2.3
			c-0.8-0.5-1.6-0.8-2.5-1.1l-0.8-4.1C32.1,13.3,34.5,14.3,36.4,15.8z M27.5,13l0.8,3.7c-0.3,0-0.5,0-0.8,0c-0.3,0-0.5,0-0.8,0
			L27.5,13z M25.4,12.9L24.6,17c-0.9,0.3-1.7,0.6-2.5,1.1l-3.5-2.3C20.5,14.3,22.8,13.3,25.4,12.9z M20.2,19.4
			c-0.4,0.3-0.8,0.7-1.1,1.1L17,17.3L20.2,19.4z M15.6,18.8l2.3,3.5c-0.4,0.8-0.7,1.6-1,2.4l-4.1,0.8C13.2,23.1,14.2,20.8,15.6,18.8
			z M12.8,27.7l3.9-0.8c0,0.2,0,0.4,0,0.6c0,0.3,0,0.7,0.1,1.1L12.8,27.7C12.8,27.8,12.8,27.7,12.8,27.7z M15.8,36.4
			c-1.4-1.9-2.4-4.1-2.8-6.5l4.2,0.9c0.2,0.8,0.6,1.5,1,2.2L15.8,36.4z M17.2,38l2.2-3.3c0.4,0.4,0.8,0.8,1.2,1.2L17.2,38
			C17.2,38,17.2,38,17.2,38z M18.9,39.4l3.6-2.3c0.6,0.3,1.3,0.6,2,0.8l0.8,4.1C22.9,41.7,20.7,40.8,18.9,39.4z M27.6,42.2
			C27.5,42.2,27.5,42.2,27.6,42.2c-0.1,0-0.1,0-0.1,0l-0.8-3.9c0.3,0,0.6,0,0.9,0c0.3,0,0.6,0,0.9,0L27.6,42.2z M29.7,42.1l0.8-4.1
			c0.7-0.2,1.4-0.5,2-0.8l3.6,2.3C34.2,40.8,32,41.7,29.7,42.1z M37.7,38.1l-3.3-2.2c0.4-0.4,0.8-0.8,1.2-1.2L37.7,38.1
			C37.8,38,37.8,38,37.7,38.1z M39.2,36.4l-2.3-3.5c0.4-0.7,0.7-1.4,1-2.2l4.2-0.9C41.6,32.3,40.6,34.5,39.2,36.4z M38.3,28.6
			c0-0.3,0.1-0.7,0.1-1.1c0-0.2,0-0.4,0-0.6l3.9,0.8v0L38.3,28.6z"/>
	</g>
</g>
</svg>
