<svg xmlns="http://www.w3.org/2000/svg" viewBox="0 0 45 76.74"><title>security</title><g id="Calque_2" data-name="Calque 2"><g id="securite"><path d="M23.4,19.33a9.66,9.66,0,1,0-9.68-9.68A9.71,9.71,0,0,0,23.4,19.33Zm0-16.48a6.84,6.84,0,1,1-6.84,6.84A6.85,6.85,0,0,1,23.4,2.85Z" fill="#851714"/><path d="M43.58,51.18a6.07,6.07,0,0,0,.08-.85V33.49a13.41,13.41,0,0,0-7.2-11.88l5.78-6.43H33.44L29,20.1H16.52A13.42,13.42,0,0,0,3.13,33.49V48.62L0,52.08l.28,10,.53-.61A39,39,0,0,1,7,56.19a6,6,0,0,0,2.08.49,7.78,7.78,0,0,0-.53,2.77V76.74h2.85V59.44a4.8,4.8,0,1,1,9.6,0V76.74h4.88V59.44a4.8,4.8,0,0,1,9.6,0V76.74h2.85V59.44a7.78,7.78,0,0,0-.53-2.77,7.11,7.11,0,0,0,2.6-.73A28.47,28.47,0,0,1,45,59.85V52.45C44.88,52.41,44.43,51.92,43.58,51.18Zm-2.77-17.7v16.8a3.54,3.54,0,0,1-7.08,0V35H30.88V45a34.87,34.87,0,0,0-7.49-.81,30.9,30.9,0,0,0-7.49.94v-.57l6.47-7.28L34.46,23.84A10.51,10.51,0,0,1,40.81,33.49Zm-34.87,0A10.54,10.54,0,0,1,16.48,22.95h9.89L13.22,37.47h-.16V50.29a3.54,3.54,0,0,1-7.08,0V33.49ZM23.4,57a7.66,7.66,0,0,0-7.24-5.21,1.53,1.53,0,0,0-.45,0h0a25.8,25.8,0,0,1,7.69-1.22,29.41,29.41,0,0,1,7.61,1c0,.08,0,.16,0,.24-.16,0-.33,0-.45,0A7.61,7.61,0,0,0,23.4,57Z" fill="#851714"/></g></g></svg>