<?xml version="1.0" encoding="utf-8"?>
<!-- Generator: Adobe Illustrator 21.1.0, SVG Export Plug-In . SVG Version: 6.00 Build 0)  -->
<svg version="1.1" id="Calque_1" xmlns="http://www.w3.org/2000/svg" xmlns:xlink="http://www.w3.org/1999/xlink" x="0px" y="0px"
	 viewBox="0 0 47 42" width="47" height="42" style="enable-background:new 0 0 47 42;" xml:space="preserve">

<path fill="#C5281C" d="M44.2,35.5v3.6c0,1.6-1.3,2.9-3,2.9h-4.7c-1.6,0-3-1.3-3-2.9v-3.5h-3.5c-0.2,0.8-0.7,1.4-1.5,1.7
	c-0.8,0.3-1.8,0.3-2.8,0.3h-2.7c-1,0-2,0-2.8-0.3c-0.8-0.3-1.3-0.9-1.5-1.7h-5.4v3.5c0,1.6-1.3,2.9-3,2.9H5.8c-1.6,0-3-1.3-3-2.9
	v-3.6C1.2,35.3,0,33.9,0,32.3V19.6c0-2.5,1.2-4.8,3.3-6.3L5.3,12l2.1-6.8C8.1,2.2,10.8,0,14,0H33c3.2,0,6,2.2,6.7,5.3l2.1,6.8
	l1.9,1.3c2.1,1.4,3.3,3.8,3.3,6.3v12.7C47,33.9,45.8,35.3,44.2,35.5z M45.5,19.6c0-2-1-3.9-2.7-5l-2.1-1.5c-0.1-0.1-0.2-0.2-0.3-0.4
	l-2.2-7c0,0,0,0,0-0.1c-0.5-2.4-2.7-4.1-5.2-4.1H14c-2.5,0-4.7,1.7-5.2,4.1c0,0,0,0,0,0.1l-2.2,7c-0.1,0.2-0.2,0.3-0.3,0.4l-2.1,1.5
	c-1.7,1.2-2.7,3-2.7,5v12.7c0,0.9,0.8,1.7,1.7,1.7h0.3c0.4,0,0.8,0.3,0.8,0.8v4.3c0,0.8,0.6,1.4,1.4,1.4h4.7c0.8,0,1.4-0.6,1.4-1.4
	v-4.3c0-0.4,0.3-0.8,0.8-0.8h6.8c0.4,0,0.8,0.3,0.8,0.8c0,0.6,0.2,0.8,0.6,1c0.5,0.2,1.4,0.2,2.3,0.2h2.7c0.9,0,1.7,0,2.3-0.2
	c0.4-0.1,0.6-0.3,0.6-1c0-0.4,0.3-0.8,0.8-0.8h4.9c0.4,0,0.8,0.3,0.8,0.8v4.3c0,0.8,0.6,1.4,1.4,1.4h4.7c0.8,0,1.4-0.6,1.4-1.4v-4.3
	c0-0.4,0.3-0.8,0.8-0.8h0.3c0.9,0,1.7-0.8,1.7-1.7V19.6z M38.7,26C36.1,26,34,24,34,21.4s2.1-4.6,4.6-4.6c2.6,0,4.6,2.1,4.6,4.6
	S41.2,26,38.7,26z M38.7,18.4c-1.7,0-3.1,1.4-3.1,3.1c0,1.7,1.4,3.1,3.1,3.1c1.7,0,3.1-1.4,3.1-3.1C41.8,19.7,40.4,18.4,38.7,18.4z
	 M37.4,15H9.6c-0.5,0-1-0.2-1.3-0.6c-0.3-0.4-0.5-0.9-0.3-1.4c0,0,0,0,0,0l2.1-7c0.5-1.8,2.1-3.1,4-3.1H33c1.9,0,3.6,1.3,4,3.1
	l2.1,7l0,0c0.1,0.5,0,1-0.3,1.4C38.4,14.8,37.9,15,37.4,15z M35.5,6.3C35.5,6.3,35.5,6.3,35.5,6.3c-0.3-1.2-1.3-2-2.5-2H14.1
	c-1.2,0-2.2,0.8-2.5,2l0,0l-2.1,7c0,0,0,0.1,0,0.1c0,0,0.1,0.1,0.2,0.1h27.8c0.1,0,0.1,0,0.2-0.1c0,0,0-0.1,0-0.1L35.5,6.3z
	 M13,21.4C13,24,10.9,26,8.3,26S3.7,24,3.7,21.4s2.1-4.6,4.6-4.6S13,18.9,13,21.4z M5.2,21.4c0,1.7,1.4,3.1,3.1,3.1s3.1-1.4,3.1-3.1
	c0-1.7-1.4-3.1-3.1-3.1S5.2,19.7,5.2,21.4z M14.3,27h18.4c0.4,0,0.8,0.3,0.8,0.8c0,0.4-0.3,0.8-0.8,0.8l0,0H14.3
	c-0.4,0-0.8-0.3-0.8-0.8C13.5,27.3,13.9,27,14.3,27z"/>
</svg>
