<svg xmlns="http://www.w3.org/2000/svg" viewBox="0 0 47 47"><title>wheel</title><g id="Calque_2" data-name="Calque 2"><g id="roue"><path d="M23.5,47A23.5,23.5,0,1,1,47,23.5,23.53,23.53,0,0,1,23.5,47Zm0-38.78A15.28,15.28,0,1,0,38.78,23.5,15.29,15.29,0,0,0,23.5,8.22Z" fill="#851714"/><circle cx="23.5" cy="23.5" r="4.78" fill="#851714"/><path d="M23.5,9.36A14.14,14.14,0,1,0,37.64,23.5,14.13,14.13,0,0,0,23.5,9.36Zm10.16,6.72A12.53,12.53,0,0,1,36,21.88l-3.49-.72a9.94,9.94,0,0,0-.82-2.07ZM31.91,23.5a8.41,8.41,0,1,1-8.41-8.41A8.4,8.4,0,0,1,31.91,23.5Zm-1.29-5.95a8.71,8.71,0,0,0-.95-1l2.76-1.82Zm.52-4-3,2A9.3,9.3,0,0,0,26,14.56l-.72-3.51A12.28,12.28,0,0,1,31.14,13.52ZM23.5,11.08l.65,3.16a5.85,5.85,0,0,0-.65,0,5.41,5.41,0,0,0-.65,0Zm-1.79,0L21,14.56a9.3,9.3,0,0,0-2.17.92l-3-2A12.28,12.28,0,0,1,21.71,11.05ZM17.3,16.58a11.66,11.66,0,0,0-.95,1l-1.82-2.76Zm-4-.5,2,3a9.94,9.94,0,0,0-.82,2.07L11,21.88A12.53,12.53,0,0,1,13.32,16.08ZM10.9,23.7l3.31-.7c0,.17,0,.32,0,.5s0,.62,0,.92L10.9,23.7Zm2.56,7.42a12.65,12.65,0,0,1-2.41-5.58l3.56.75a8.16,8.16,0,0,0,.82,1.84Zm1.19,1.34,1.87-2.84a8.08,8.08,0,0,0,1,1l-2.84,1.89Zm1.47,1.24,3-2a8.78,8.78,0,0,0,1.74.7l.72,3.53A12.52,12.52,0,0,1,16.13,33.71Zm7.42,2.39h-.1l-.7-3.34c.25,0,.5,0,.75,0l.75,0Zm1.79-.15.72-3.53a10.6,10.6,0,0,0,1.74-.7l3,2A12.52,12.52,0,0,1,25.34,35.95Zm6.9-3.41L29.4,30.67a10.12,10.12,0,0,0,1-1l1.87,2.84S32.26,32.51,32.24,32.54Zm1.27-1.42-2-3a11.2,11.2,0,0,0,.82-1.84l3.56-.75A12.77,12.77,0,0,1,33.51,31.12Zm-.77-6.7c0-.3,0-.6,0-.92a3.34,3.34,0,0,0,0-.5l3.31.7v0Z" fill="#851714"/></g></g></svg>